# xmcd
#
# Track frame offsets:
#	150
#	72859
#	92495
#	121888
#
# Disc length: 2295 seconds
#
# Revision: 0
# Processed by: cddbd v1.5.2PL0 Copyright (c) Steve Scherf et al.
# Submitted via: audiograbber 1.83.01
#
DISCID=2a08f504
DTITLE=Grateful Dead - 94-06-26 Sam Boyd Silver Bowl, Las Vegas NV
DYEAR=1900
DGENRE=
TTITLE0=Space
TTITLE1=The Wheel
TTITLE2=All Along The Watchtower
TTITLE3=Morning Dew
EXTD=
EXTT0=
EXTT1=
EXTT2=
EXTT3=
PLAYORDER=
